<?xml version="1.0" encoding="UTF-8"?>
<svg width="130px" height="78px" viewBox="0 0 130 78" version="1.1" xmlns="http://www.w3.org/2000/svg" xmlns:xlink="http://www.w3.org/1999/xlink">
    <!-- Generator: Sketch 49.3 (51167) - http://www.bohemiancoding.com/sketch -->
    <title>money-bill-alt</title>
    <desc>Created with Sketch.</desc>
    <defs></defs>
    <g id="Page-1" stroke="none" stroke-width="1" fill="none" fill-rule="evenodd">
        <g id="Home-Buying-V2" transform="translate(-451.000000, -722.000000)" fill="#000000" fill-rule="nonzero">
            <g id="money-bill-alt" transform="translate(451.000000, 722.000000)">
                <path d="M65,16.2924282 C54.2301094,16.2924282 45.5,26.5043185 45.5,39.1018277 C45.5,51.6973003 54.2297031,61.9112272 65,61.9112272 C75.765625,61.9112272 84.5,51.7019843 84.5,39.1018277 C84.5,26.5043185 75.7698906,16.2924282 65,16.2924282 Z M74.75,49.7790705 C74.75,51.3018016 73.9543594,52.1357702 72.3994375,52.1357702 L58.7305469,52.1357702 C57.1754219,52.1357702 56.3797813,51.3018016 56.3797813,49.7790705 L56.3797813,47.9663342 C56.3797813,46.4436031 57.1754219,45.6096345 58.7305469,45.6096345 L61.8040312,45.6096345 L61.8040312,37.4882663 C61.8040312,36.4367937 61.9125,35.3492742 61.9125,35.3492742 L61.8401875,35.3492742 C61.8401875,35.3492742 61.4788281,35.8930339 61.2616875,36.1105379 C60.3575781,36.9807572 59.1280625,37.0170078 58.0795313,35.8930339 L56.9586875,34.6240574 C55.8735938,33.5363342 55.9463125,32.339859 57.0671563,31.2883864 L61.4790312,27.2277023 C62.3827344,26.3937337 63.178375,26.0674778 64.4080937,26.0674778 L66.8669219,26.0674778 C68.4220469,26.0674778 69.2536406,26.8649922 69.2536406,28.4241775 L69.2536406,45.6094308 L72.3996406,45.6094308 C73.9545625,45.6094308 74.7502031,46.4431958 74.7502031,47.9661305 L74.7502031,49.7790705 L74.75,49.7790705 Z M125.125,0 L4.875,0 C2.18257813,0 0,2.18827676 0,4.88772846 L0,73.1122715 C0,75.8117232 2.18257813,78 4.875,78 L125.125,78 C127.817422,78 130,75.8117232 130,73.1122715 L130,4.88772846 C130,2.18827676 127.817422,0 125.125,0 Z M104,68.4281984 L26,68.4281984 C26,59.430094 18.7246719,52.1357702 9.75,52.1357702 L9.75,26.0678851 C18.7246719,26.0678851 26,18.7735614 26,9.77545692 L104,9.77545692 C104,18.7735614 111.275328,26.0678851 120.25,26.0678851 L120.25,52.1357702 C111.275328,52.1357702 104,59.430094 104,68.4281984 Z" id="Shape"></path>
            </g>
        </g>
    </g>
</svg>