<?xml version="1.0" encoding="UTF-8"?>
<svg width="42px" height="99px" viewBox="0 0 42 99" version="1.1" xmlns="http://www.w3.org/2000/svg" xmlns:xlink="http://www.w3.org/1999/xlink">
    <!-- Generator: Sketch 49.3 (51167) - http://www.bohemiancoding.com/sketch -->
    <title>tie</title>
    <desc>Created with Sketch.</desc>
    <defs></defs>
    <g id="Page-1" stroke="none" stroke-width="1" fill="none" fill-rule="evenodd">
        <g id="Home-Buying-V2" transform="translate(-490.000000, -1112.000000)" fill="#000000" fill-rule="nonzero">
            <g id="tie" transform="translate(490.000000, 1112.000000)">
                <path d="M23.1666693,20 L18.8333307,20 C16.7966616,20 14.8553259,19.104 13.6333244,17.6 L8.43331804,11.2 C7.98265083,10.644 7.87431736,9.912 8.15165103,9.264 C8.31198456,8.884 12.2293227,0 21,0 C29.7706773,0 33.6880154,8.884 33.848349,9.264 C34.1256826,9.912 34.0173492,10.644 33.566682,11.2 L28.3666756,17.6 C27.1446741,19.104 25.2033384,20 23.1666693,20 Z M12.6886566,9.768 L17.1043286,15.2 C17.5073291,15.7 18.1573299,16 18.8333307,16 L23.1666693,16 C23.8426701,16 24.4926709,15.7 24.8956714,15.2 L29.3113434,9.768 C28.2323421,7.904 25.4460054,4 21,4 C16.5539946,4 13.7676579,7.904 12.6886566,9.768 Z" id="Shape"></path>
                <path d="M21,99 C20.5069542,99 20.0181588,98.8340059 19.6186217,98.4978679 L4.74223947,86.0483129 C4.16418576,85.5669301 3.89641088,84.8199568 4.03667391,84.0895829 L16.7878586,17.6919559 C17.0046288,16.5631962 18.1352338,15.8245226 19.2658389,16.0361651 C20.2731825,16.2229084 20.978748,17.073628 21,18.0363936 C21.021252,17.073628 21.7268175,16.2229084 22.7341611,16.0403149 C23.873267,15.8328224 24.9953712,16.5631962 25.2121414,17.6961058 L37.9633261,84.0937327 C38.1035891,84.8241066 37.8358142,85.5669301 37.2577605,86.0524627 L22.3813783,98.5020178 C21.9818412,98.8340059 21.4930458,99 21,99 Z M8.44008304,83.6787476 L21,94.1903219 L33.559917,83.6787476 L21.0382536,18.4596785 C21.0127512,18.3434826 21.0042504,18.2314366 21,18.1152408 C20.9957496,18.2272868 20.9872488,18.3434826 20.9617464,18.4596785 L8.44008304,83.6787476 Z" id="Shape"></path>
                <path d="M9.99851134,10 C9.58253343,10 9.15855595,9.86798032 8.79857508,9.59994036 L0.798999986,3.59904576 C-0.0849530617,2.93494676 -0.260943714,1.68276008 0.399021231,0.798628277 C1.06698575,-0.0895041238 2.31891925,-0.257529173 3.19887251,0.398568637 L11.1984476,6.39946324 C12.0824006,7.06356224 12.2623911,8.31574892 11.6024261,9.19988072 C11.2064472,9.72395885 10.6024793,10 9.99851134,10 Z" id="Shape"></path>
                <path d="M31.9977298,10 C31.3936891,10 30.7896483,9.72400619 30.3976218,9.20001795 C29.7375773,8.31603779 29.9175894,7.06406589 30.8016491,6.40008079 L38.8021892,0.400215434 C39.6822486,-0.259769755 40.9343331,-0.0877736148 41.6023782,0.800206458 C42.2624227,1.68418662 42.0824106,2.93615852 41.1983509,3.60014362 L33.1978108,9.60000898 C32.8377865,9.86800296 32.4137579,10 31.9977298,10 Z" id="Shape"></path>
            </g>
        </g>
    </g>
</svg>