<?xml version="1.0" encoding="UTF-8"?>
<svg width="100px" height="104px" viewBox="0 0 100 104" version="1.1" xmlns="http://www.w3.org/2000/svg" xmlns:xlink="http://www.w3.org/1999/xlink">
    <!-- Generator: Sketch 49.3 (51167) - http://www.bohemiancoding.com/sketch -->
    <title>business-man</title>
    <desc>Created with Sketch.</desc>
    <defs></defs>
    <g id="Page-1" stroke="none" stroke-width="1" fill="none" fill-rule="evenodd">
        <g id="Home-Buying-V2" transform="translate(-465.000000, -1546.000000)" fill="#000000" fill-rule="nonzero">
            <g id="Section/fig-money-difference" transform="translate(0.000000, 362.000000)">
                <g id="business-man" transform="translate(465.000000, 1184.000000)">
                    <path d="M50,74 C39.7961429,74 30.7357143,65.3376471 26.9698571,52.2309412 C23.5478571,52.022 21,47.4165882 21,41.3529412 C21,39.6291765 21.2195714,37.9402353 21.6297143,36.4254118 C21.203,34.2315294 21,32.3292941 21,30.4705882 C21,13.6682353 34.0127143,0 50,0 C65.9872857,0 79,13.6682353 79,30.4705882 C79,32.3292941 78.797,34.2315294 78.3702857,36.4254118 C78.7804286,37.9402353 79,39.6291765 79,41.3529412 C79,47.4165882 76.4521429,52.022 73.0301429,52.2309412 C69.2642857,65.3376471 60.2038571,74 50,74 Z M28.4281429,47.5210588 C28.6808571,47.5210588 28.9252857,47.5645882 29.1531429,47.6603529 C29.7662857,47.9258824 30.2924286,48.4264706 30.4498571,49.1055294 C33.3457143,61.3938824 41.2047143,69.6470588 50,69.6470588 C58.7952857,69.6470588 66.6542857,61.3938824 69.5501429,49.1055294 C69.7075714,48.4264706 70.1674286,47.8736471 70.7847143,47.6124706 C71.402,47.3512941 72.098,47.4165882 72.6572857,47.7865882 C73.3491429,47.9345882 74.8571429,45.5796471 74.8571429,41.3529412 C74.8571429,39.8642353 74.6541429,38.4321176 74.2647143,37.2132941 C74.1487143,36.8432941 74.128,36.4428235 74.2067143,36.0597647 C74.65,33.9398824 74.8571429,32.1638824 74.8571429,30.4705882 C74.8571429,16.0667059 63.7087143,4.35294118 50,4.35294118 C36.2912857,4.35294118 25.1428571,16.0667059 25.1428571,30.4705882 C25.1428571,32.1638824 25.35,33.9398824 25.7891429,36.0597647 C25.872,36.4428235 25.8512857,36.8389412 25.7311429,37.2132941 C25.3458571,38.4321176 25.1428571,39.8642353 25.1428571,41.3529412 C25.1428571,45.5665882 26.7005714,47.8823529 27.2142857,47.8823529 C27.5705714,47.6472941 28.0014286,47.5210588 28.4281429,47.5210588 Z" id="Shape"></path>
                    <path d="M70.3590847,39 C69.5414392,39 68.7905404,38.5016667 68.4526359,37.713 C68.3733744,37.531 66.8382034,33.9083333 66.3417758,30.2683333 C57.5938041,29.679 48.5413013,25.2286667 44.0484232,20.6136667 C43.6688021,21.3026667 43.2015761,21.931 42.650917,22.4986667 C39.3094171,25.961 33.9863785,25.9956667 31.2747993,26 C30.6657369,27.4516667 30.407094,32.1663333 30.7241402,36.6773333 C30.7700284,37.3316667 30.5239005,37.9773333 30.0608462,38.4236667 C29.5894486,38.8743333 28.9511845,39.0693333 28.3296071,38.974 C28.3004055,38.9696667 25.4511615,38.5276667 23.0858301,38.5276667 C21.9344519,38.5276667 21,37.557 21,36.361 C21,35.165 21.9344519,34.1943333 23.0858301,34.1943333 C24.2163501,34.1943333 25.4177883,34.281 26.4315017,34.3763333 C26.3105236,30.459 26.5024199,24.856 28.3713237,22.7716667 C29.1347376,21.9136667 30.1359361,21.671 31.3040009,21.6666667 C33.8153404,21.6666667 37.6782979,21.5323333 39.7098964,19.4263333 C40.686065,18.421 41.1574626,17.0256667 41.1574626,15.1666667 C41.1574626,13.9706667 42.0919145,13 43.2432927,13 C44.394671,13 45.3291229,13.9706667 45.3291229,15.1666667 C45.5710792,17.342 56.0294315,26 68.2732545,26 C69.4246328,26 70.3590847,26.9706667 70.3590847,28.1666667 C70.3590847,30.3073333 71.1600434,32.9506667 71.7273892,34.5453333 L75.7446981,34.203 C76.8835614,34.1076667 77.9014465,34.9916667 77.993223,36.1876667 C78.0849995,37.3793333 77.2339808,38.428 76.0867743,38.5233333 L70.5301227,38.9956667 C70.4717195,39 70.4174879,39 70.3590847,39 Z" id="Shape"></path>
                    <path d="M44.75,43 L40.25,43 C39.008,43 38,42.104 38,41 C38,39.896 39.008,39 40.25,39 L44.75,39 C45.992,39 47,39.896 47,41 C47,42.104 45.992,43 44.75,43 Z" id="Shape"></path>
                    <path d="M60.75,43 L56.25,43 C55.008,43 54,42.104 54,41 C54,39.896 55.008,39 56.25,39 L60.75,39 C61.992,39 63,39.896 63,41 C63,42.104 61.992,43 60.75,43 Z" id="Shape"></path>
                    <path d="M97.9133966,104 L2.08660336,104 C1.44498048,104 0.836688662,103.68937 0.440882342,103.159986 C0.0450760219,102.630601 -0.0924145945,101.934964 0.0617415512,101.283078 L3.29902061,87.689719 C4.04063666,84.5877905 6.02383465,81.9889958 8.74864868,80.5583461 L30.3180099,69.235651 C30.830475,68.9687715 31.4262676,68.9337708 31.9678973,69.1393994 C32.509527,69.3450279 32.9386644,69.7781604 33.1678154,70.333795 L43.8962499,96.6236229 L45.4753088,93.3116909 C44.0837371,91.2991562 41.6672354,87.3659634 41.6672354,84.3121608 C41.6672354,80.2652161 44.8628506,77.7495477 50,77.7495477 C55.1371494,77.7495477 58.3327646,80.2652161 58.3327646,84.3121608 C58.3327646,87.3659634 55.9162629,91.2991562 54.5246912,93.3029407 L56.1037501,96.6148728 L66.8321846,70.3250448 C67.0613356,69.7694102 67.490473,69.3362778 68.0321027,69.1306492 C68.5737324,68.9293958 69.169525,68.9600213 69.6819901,69.2269009 L91.2513513,80.549596 C93.971999,81.9802456 95.9593633,84.5790404 96.7009794,87.6809688 L99.9382584,101.274328 C100.092415,101.926214 99.954924,102.621851 99.5591177,103.151235 C99.1633113,103.68937 98.5550195,104 97.9133966,104 Z M59.4076913,99.6249246 L95.246912,99.6249246 L92.6554222,88.7484872 C92.2137856,86.8847051 91.0222003,85.3228032 89.3889784,84.4652884 L69.7986488,74.1794862 L59.4076913,99.6249246 Z M47.1210298,99.6249246 L52.8831366,99.6249246 L50.2208183,94.0423284 C49.858343,93.2810653 49.9541698,92.3666746 50.4583021,91.697288 C51.9956971,89.6716281 54.1663823,86.0403156 54.1663823,84.3121608 C54.1663823,82.3390018 51.2540811,82.1246231 50,82.1246231 C48.7459189,82.1246231 45.8336177,82.3390018 45.8336177,84.3121608 C45.8336177,86.0271903 48.0459667,89.7328792 49.5458643,91.697288 C50.054163,92.3622995 50.1458234,93.2810653 49.7833481,94.0423284 L47.1210298,99.6249246 Z M4.75725442,99.6249246 L40.5964751,99.6249246 L30.209684,74.1838613 L10.6193543,84.4696635 C8.98196609,85.3271783 7.79454713,86.8890802 7.35291061,88.7484872 L4.75725442,99.6249246 Z" id="Shape"></path>
                </g>
            </g>
        </g>
    </g>
</svg>